<?xml version="1.0" encoding="utf-8"?>
<!-- Generator: Adobe Illustrator 23.0.2, SVG Export Plug-In . SVG Version: 6.00 Build 0)  -->
<svg version="1.1" id="Calque_1" xmlns="http://www.w3.org/2000/svg" xmlns:xlink="http://www.w3.org/1999/xlink" x="0px" y="0px"
	 viewBox="0 0 306.4 96.4" style="enable-background:new 0 0 306.4 96.4;" xml:space="preserve">
<style type="text/css">
	.st0{fill:#88CF00;}
	.st1{fill:#0052B0;}
</style>
<g>
	<g>
		<path class="st0" d="M140.9,50.6c-6.4,0-11.6-4.8-11.6-10.7l0-1.9H154c8.6,0,15.5-6.5,15.5-14.4v-9.1c0-8-7-14.4-15.5-14.4h-21.6
			c-1.2,0-2.4,0-3.6,0.3c-7,1.6-11.9,7.4-11.9,14.1v5.3c0,1.2,0.9,2.2,2,2.2h8.4c1.1,0,2-1,2-2.2v-1.3v-2.1c0-2.8,2.5-5,5.5-5h16.9
			c3,0,5.5,2.3,5.5,5v5.4c0,2.8-2.5,5-5.5,5h-41.8V38h7v1.9c0,12.2,10.8,22,24,22h35.7V50.6L140.9,50.6z"/>
		<g>
			<path class="st1" d="M85.9,11.3c6.4,0,11.6,4.8,11.6,10.8v37.9c0,1.1,1,2,2.2,2h7.9c1.2,0,2.2-0.9,2.2-2V22.1
				C109.9,9.9,99.1,0,85.9,0H60.5c-1.1,0-2,1-2,2.2v57.5c0,1.2,0.9,2.2,2,2.2h8.4c1.1,0,2-1,2-2.2V11.3L85.9,11.3z"/>
			<path class="st1" d="M16.7,11.3h32.5c1.2,0,2.2-0.9,2.2-1.9V1.9c0-1.1-0.9-1.9-2.2-1.9H16.5C7.4,0,0,6.8,0,15.2v31.5
				c0,8.4,7.4,15.2,16.5,15.2h32.7c1.2,0,2.2-0.9,2.2-1.9v-7.4c0-1.1-1-1.9-2.2-1.9H16.7c-2.4,0-4.4-1.9-4.4-4.1v-8.6h19.4
				c1.2,0,2.2-0.9,2.2-1.9v-7.2c0-1.1-1-1.9-2.2-1.9H12.3V15.4C12.3,13.2,14.4,11.3,16.7,11.3z"/>
			<path class="st1" d="M306.4,40.6c0-0.6,0-1.1-0.1-1.8c-0.6-6.9-7.7-12.1-15.2-12.1h-18.5l-0.5,0c-3,0-5.4-2.6-5.4-5.9l0-4.2
				c0-3,2.6-5.4,5.9-5.4h7.3l0.1,0h18.5c0.9,0,1.8-0.6,2.1-1.4c0.1-0.2,0.1-0.4,0.1-0.6V2c0-1.1-1-2-2.2-2l-28.8,0
				c-8.4,0-15.3,6.3-15.3,14.1l0,8.8c0,8.4,6.3,15.2,14.1,15.2h20.2c3,0,5.4,2.6,5.4,5.9v1.4c0,3-2.6,5.4-5.8,5.4h-31.6
				c-0.9,0-1.8,0.5-2.1,1.4c-0.1,0.2-0.1,0.4-0.1,0.6v7.3c0,1.1,1,2,2.2,2h25.9l8.8,0c8.4,0,15.1-6.3,15.1-14.1V40.6z"/>
			<path class="st1" d="M205.5,0h-26.9c-1.1,0-2,1-2,2.2v36.4c0,1.2,0.9,2.2,2,2.2h8.4c1.1,0,2-1,2-2.2l0-27.3l15.1,0
				c6.4,0,11.6,4.8,11.6,10.8V42c0,5.9-5.2,8.7-11.6,8.7l-27.5,0v11.3l27.5,0c13.2,0,23.9-7.8,23.9-20v-20C228,10.3,218.2,0,205.5,0
				z"/>
			<path class="st1" d="M247.4,39l0-20.7c0-1.2-0.9-2.2-2-2.2h-8.3c-1.1,0-2,1-2,2.2V39h0l0,20.7c0,1.2,0.9,2.2,2,2.2h8.3
				c1.1,0,2-1,2-2.2L247.4,39L247.4,39z"/>
			<path class="st1" d="M247.4,4.7l0-2.5c0-1.2-0.9-2.2-2-2.2h-8.3c-1.1,0-2,1-2,2.2v2.5h0l0,4.4c0,1.2,0.9,2.2,2,2.2h8.3
				c1.1,0,2-1,2-2.2L247.4,4.7L247.4,4.7z"/>
			<path class="st1" d="M0,95.3V80c0-0.3,0.2-0.5,0.5-0.7c0.3-0.2,0.7-0.2,1.2-0.2c0.5,0,0.9,0.1,1.2,0.2c0.3,0.2,0.5,0.4,0.5,0.7
				v13.5h6.2c0.3,0,0.5,0.1,0.7,0.4c0.2,0.3,0.3,0.6,0.3,0.9c0,0.4-0.1,0.7-0.3,0.9c-0.2,0.3-0.4,0.4-0.7,0.4H1.5
				c-0.4,0-0.7-0.1-1-0.3C0.1,95.8,0,95.6,0,95.3z"/>
			<path class="st1" d="M18.4,95.3V80c0-0.3,0.1-0.5,0.4-0.7c0.3-0.2,0.6-0.3,1-0.3h9.1c0.3,0,0.6,0.1,0.8,0.4
				c0.2,0.3,0.3,0.6,0.3,0.9c0,0.4-0.1,0.7-0.3,1c-0.2,0.3-0.4,0.4-0.8,0.4h-7.2v4.7h3.9c0.3,0,0.6,0.1,0.8,0.4
				c0.2,0.2,0.3,0.5,0.3,0.9c0,0.3-0.1,0.6-0.3,0.8c-0.2,0.2-0.4,0.4-0.8,0.4h-3.9v4.7h7.2c0.3,0,0.6,0.1,0.8,0.4
				c0.2,0.3,0.3,0.6,0.3,1c0,0.3-0.1,0.6-0.3,0.9c-0.2,0.3-0.4,0.4-0.8,0.4h-9.1c-0.4,0-0.7-0.1-1-0.3
				C18.5,95.8,18.4,95.6,18.4,95.3z"/>
			<path class="st1" d="M33.5,95.3V80c0-0.3,0.2-0.5,0.5-0.7c0.3-0.2,0.7-0.2,1.2-0.2c0.5,0,0.9,0.1,1.2,0.2
				c0.3,0.2,0.5,0.4,0.5,0.7v13.5h6.2c0.3,0,0.5,0.1,0.7,0.4c0.2,0.3,0.3,0.6,0.3,0.9c0,0.4-0.1,0.7-0.3,0.9
				c-0.2,0.3-0.4,0.4-0.7,0.4H35c-0.4,0-0.7-0.1-1-0.3C33.7,95.8,33.5,95.6,33.5,95.3z"/>
			<path class="st1" d="M47.5,95.3V80c0-0.3,0.1-0.5,0.4-0.7c0.3-0.2,0.6-0.3,1-0.3H58c0.3,0,0.6,0.1,0.8,0.4
				c0.2,0.3,0.3,0.6,0.3,0.9c0,0.4-0.1,0.7-0.3,1c-0.2,0.3-0.4,0.4-0.8,0.4h-7.2v4.7h3.9c0.3,0,0.6,0.1,0.8,0.4
				c0.2,0.2,0.3,0.5,0.3,0.9c0,0.3-0.1,0.6-0.3,0.8c-0.2,0.2-0.4,0.4-0.8,0.4h-3.9v4.7H58c0.3,0,0.6,0.1,0.8,0.4
				c0.2,0.3,0.3,0.6,0.3,1c0,0.3-0.1,0.6-0.3,0.9c-0.2,0.3-0.4,0.4-0.8,0.4h-9.1c-0.4,0-0.7-0.1-1-0.3
				C47.6,95.8,47.5,95.6,47.5,95.3z"/>
			<path class="st1" d="M62.2,91v-6.5c0-1.8,0.5-3.2,1.6-4.1c1.1-0.9,2.5-1.3,4.3-1.3c1.8,0,3.3,0.4,4.4,1.2
				c1.1,0.8,1.7,1.9,1.7,3.2c0,0.6-0.1,1-0.4,1.2c-0.3,0.2-0.7,0.3-1.3,0.3c-1.1,0-1.6-0.3-1.7-1c0-0.2,0-0.4-0.1-0.5
				c0-0.1-0.1-0.3-0.2-0.6c-0.1-0.2-0.3-0.4-0.4-0.6c-0.2-0.2-0.4-0.3-0.8-0.4c-0.3-0.1-0.7-0.2-1.2-0.2c-1.8,0-2.7,0.9-2.7,2.7V91
				c0,1.8,0.9,2.7,2.7,2.7c0.5,0,1-0.1,1.4-0.2c0.4-0.2,0.6-0.4,0.8-0.7c0.2-0.3,0.3-0.5,0.3-0.8c0.1-0.2,0.1-0.5,0.1-0.8
				c0.1-0.6,0.6-1,1.6-1c0.6,0,1,0.1,1.3,0.3c0.3,0.2,0.4,0.6,0.4,1.2c0,1.4-0.6,2.5-1.7,3.4c-1.1,0.8-2.6,1.3-4.4,1.3
				c-1.8,0-3.2-0.4-4.3-1.3C62.8,94.2,62.2,92.8,62.2,91z"/>
			<path class="st1" d="M76.8,80.4c0-0.4,0.1-0.7,0.3-0.9c0.2-0.3,0.4-0.4,0.8-0.4h10.8c0.3,0,0.6,0.1,0.8,0.4
				c0.2,0.3,0.3,0.6,0.3,0.9c0,0.4-0.1,0.7-0.3,0.9c-0.2,0.3-0.4,0.4-0.8,0.4h-3.7v13.5c0,0.3-0.2,0.5-0.5,0.7
				c-0.3,0.2-0.7,0.3-1.2,0.3c-0.5,0-0.9-0.1-1.2-0.3c-0.3-0.2-0.5-0.4-0.5-0.7V81.7h-3.8c-0.3,0-0.6-0.1-0.8-0.4
				C76.9,81.1,76.8,80.8,76.8,80.4z"/>
			<path class="st1" d="M93.1,95.3V80c0-0.2,0.1-0.5,0.3-0.7c0.2-0.2,0.5-0.3,0.8-0.3h5.1c4,0,6.1,1.6,6.1,4.9
				c0,1.3-0.3,2.3-0.9,3.1c-0.6,0.8-1.4,1.3-2.4,1.6l3.3,5.7c0.1,0.1,0.1,0.2,0.1,0.4c0,0.4-0.2,0.8-0.7,1.1
				c-0.4,0.3-0.9,0.5-1.4,0.5c-0.5,0-0.9-0.2-1.2-0.7l-3.6-6.5h-2.1v6.1c0,0.3-0.2,0.5-0.5,0.7c-0.3,0.2-0.7,0.3-1.2,0.3
				c-0.4,0-0.8-0.1-1.2-0.3C93.3,95.8,93.1,95.6,93.1,95.3z M96.4,86.7h2.8c1.8,0,2.7-0.8,2.7-2.5c0-1.7-0.9-2.5-2.7-2.5h-2.8V86.7z
				"/>
			<path class="st1" d="M109.3,95.3V80c0-0.3,0.2-0.5,0.5-0.7c0.3-0.2,0.7-0.2,1.2-0.2c0.5,0,0.9,0.1,1.2,0.2
				c0.3,0.2,0.5,0.4,0.5,0.7v15.2c0,0.3-0.2,0.5-0.5,0.7c-0.3,0.2-0.7,0.3-1.2,0.3c-0.5,0-0.9-0.1-1.2-0.3
				C109.4,95.8,109.3,95.6,109.3,95.3z"/>
			<path class="st1" d="M117.1,91v-6.5c0-1.8,0.5-3.2,1.6-4.1c1.1-0.9,2.5-1.3,4.3-1.3c1.8,0,3.3,0.4,4.4,1.2
				c1.1,0.8,1.7,1.9,1.7,3.2c0,0.6-0.1,1-0.4,1.2c-0.3,0.2-0.7,0.3-1.3,0.3c-1.1,0-1.6-0.3-1.7-1c0-0.2,0-0.4-0.1-0.5
				c0-0.1-0.1-0.3-0.2-0.6c-0.1-0.2-0.3-0.4-0.4-0.6c-0.2-0.2-0.4-0.3-0.8-0.4c-0.3-0.1-0.7-0.2-1.2-0.2c-1.8,0-2.7,0.9-2.7,2.7V91
				c0,1.8,0.9,2.7,2.7,2.7c0.5,0,1-0.1,1.4-0.2c0.4-0.2,0.6-0.4,0.8-0.7s0.3-0.5,0.3-0.8c0.1-0.2,0.1-0.5,0.1-0.8
				c0.1-0.6,0.6-1,1.6-1c0.6,0,1,0.1,1.3,0.3c0.3,0.2,0.4,0.6,0.4,1.2c0,1.4-0.6,2.5-1.7,3.4c-1.1,0.8-2.6,1.3-4.4,1.3
				c-1.8,0-3.2-0.4-4.3-1.3C117.6,94.2,117.1,92.8,117.1,91z"/>
			<path class="st1" d="M133,95.3V80c0-0.3,0.2-0.5,0.5-0.7c0.3-0.2,0.7-0.2,1.2-0.2c0.5,0,0.9,0.1,1.2,0.2c0.3,0.2,0.5,0.4,0.5,0.7
				v15.2c0,0.3-0.2,0.5-0.5,0.7c-0.3,0.2-0.7,0.3-1.2,0.3c-0.5,0-0.9-0.1-1.2-0.3C133.1,95.8,133,95.6,133,95.3z"/>
			<path class="st1" d="M139.7,80.4c0-0.4,0.1-0.7,0.3-0.9c0.2-0.3,0.4-0.4,0.8-0.4h10.8c0.3,0,0.6,0.1,0.8,0.4
				c0.2,0.3,0.3,0.6,0.3,0.9c0,0.4-0.1,0.7-0.3,0.9c-0.2,0.3-0.4,0.4-0.8,0.4h-3.7v13.5c0,0.3-0.2,0.5-0.5,0.7
				c-0.3,0.2-0.7,0.3-1.2,0.3c-0.5,0-0.9-0.1-1.2-0.3c-0.3-0.2-0.5-0.4-0.5-0.7V81.7h-3.8c-0.3,0-0.6-0.1-0.8-0.4
				S139.7,80.8,139.7,80.4z"/>
			<path class="st1" d="M156,95.3V80c0-0.3,0.1-0.5,0.4-0.7c0.3-0.2,0.6-0.3,1-0.3h9.1c0.3,0,0.6,0.1,0.8,0.4
				c0.2,0.3,0.3,0.6,0.3,0.9c0,0.4-0.1,0.7-0.3,1c-0.2,0.3-0.4,0.4-0.8,0.4h-7.2v4.7h3.9c0.3,0,0.6,0.1,0.8,0.4
				c0.2,0.2,0.3,0.5,0.3,0.9c0,0.3-0.1,0.6-0.3,0.8c-0.2,0.2-0.4,0.4-0.8,0.4h-3.9v4.7h7.2c0.3,0,0.6,0.1,0.8,0.4
				c0.2,0.3,0.3,0.6,0.3,1c0,0.3-0.1,0.6-0.3,0.9c-0.2,0.3-0.4,0.4-0.8,0.4h-9.1c-0.4,0-0.7-0.1-1-0.3C156.2,95.8,156,95.6,156,95.3
				z"/>
			<path class="st1" d="M177.9,95.3V80c0-0.3,0.1-0.5,0.4-0.7c0.3-0.2,0.6-0.3,1-0.3h9.1c0.3,0,0.6,0.1,0.8,0.4
				c0.2,0.3,0.3,0.6,0.3,0.9c0,0.4-0.1,0.7-0.3,1c-0.2,0.3-0.4,0.4-0.8,0.4h-7.2v4.7h3.9c0.3,0,0.6,0.1,0.8,0.4
				c0.2,0.2,0.3,0.5,0.3,0.9c0,0.3-0.1,0.6-0.3,0.8c-0.2,0.2-0.4,0.4-0.8,0.4h-3.9v4.7h7.2c0.3,0,0.6,0.1,0.8,0.4
				c0.2,0.3,0.3,0.6,0.3,1c0,0.3-0.1,0.6-0.3,0.9c-0.2,0.3-0.4,0.4-0.8,0.4h-9.1c-0.4,0-0.7-0.1-1-0.3
				C178,95.8,177.9,95.6,177.9,95.3z"/>
			<path class="st1" d="M193,95.3V80c0-0.3,0.2-0.6,0.5-0.7c0.3-0.2,0.7-0.2,1.2-0.2c0.6,0,1.1,0.1,1.4,0.3c0.3,0.2,0.7,0.6,1.1,1.3
				l4.9,8.7V80c0-0.3,0.2-0.5,0.5-0.7c0.3-0.2,0.7-0.2,1.2-0.2c0.5,0,0.9,0.1,1.2,0.2c0.3,0.2,0.5,0.4,0.5,0.7v15.2
				c0,0.3-0.2,0.5-0.5,0.7c-0.3,0.2-0.7,0.3-1.2,0.3c-0.9,0-1.5-0.3-1.9-1l-5.5-9.4v9.4c0,0.3-0.2,0.5-0.5,0.7
				c-0.3,0.2-0.7,0.3-1.2,0.3c-0.5,0-0.9-0.1-1.2-0.3C193.2,95.8,193,95.6,193,95.3z"/>
			<path class="st1" d="M216.7,95.3V80c0-0.2,0.1-0.5,0.3-0.7c0.2-0.2,0.5-0.3,0.8-0.3h5.1c4,0,6.1,1.6,6.1,4.9
				c0,1.3-0.3,2.3-0.9,3.1c-0.6,0.8-1.4,1.3-2.4,1.6l3.3,5.7c0.1,0.1,0.1,0.2,0.1,0.4c0,0.4-0.2,0.8-0.7,1.1
				c-0.4,0.3-0.9,0.5-1.4,0.5c-0.5,0-0.9-0.2-1.2-0.7l-3.6-6.5h-2.1v6.1c0,0.3-0.2,0.5-0.5,0.7c-0.3,0.2-0.7,0.3-1.2,0.3
				c-0.4,0-0.8-0.1-1.2-0.3C216.9,95.8,216.7,95.6,216.7,95.3z M220.1,86.7h2.8c1.8,0,2.7-0.8,2.7-2.5c0-1.7-0.9-2.5-2.7-2.5h-2.8
				V86.7z"/>
			<path class="st1" d="M232.9,95.3V80c0-0.3,0.1-0.5,0.4-0.7c0.3-0.2,0.6-0.3,1-0.3h9.1c0.3,0,0.6,0.1,0.8,0.4
				c0.2,0.3,0.3,0.6,0.3,0.9c0,0.4-0.1,0.7-0.3,1c-0.2,0.3-0.4,0.4-0.8,0.4h-7.2v4.7h3.9c0.3,0,0.6,0.1,0.8,0.4
				c0.2,0.2,0.3,0.5,0.3,0.9c0,0.3-0.1,0.6-0.3,0.8c-0.2,0.2-0.4,0.4-0.8,0.4h-3.9v4.7h7.2c0.3,0,0.6,0.1,0.8,0.4
				c0.2,0.3,0.3,0.6,0.3,1c0,0.3-0.1,0.6-0.3,0.9c-0.2,0.3-0.4,0.4-0.8,0.4h-9.1c-0.4,0-0.7-0.1-1-0.3
				C233,95.8,232.9,95.6,232.9,95.3z"/>
			<path class="st1" d="M247.1,93.5c0-0.4,0.1-0.7,0.4-1.1c0.3-0.4,0.6-0.6,1-0.6c0.2,0,0.5,0.1,0.8,0.3c0.3,0.2,0.6,0.4,0.8,0.6
				c0.3,0.2,0.6,0.5,1.1,0.6c0.5,0.2,1,0.3,1.6,0.3c0.8,0,1.5-0.2,2-0.5c0.5-0.3,0.8-0.9,0.8-1.5c0-0.5-0.1-0.9-0.4-1.3
				c-0.3-0.4-0.7-0.7-1.2-0.9c-0.5-0.2-1-0.5-1.6-0.7c-0.6-0.2-1.2-0.5-1.8-0.8c-0.6-0.3-1.1-0.6-1.6-0.9c-0.5-0.4-0.9-0.8-1.2-1.4
				c-0.3-0.6-0.4-1.3-0.4-2c0-0.8,0.2-1.6,0.5-2.2c0.4-0.6,0.9-1.1,1.5-1.5c0.6-0.4,1.3-0.6,2-0.8c0.7-0.2,1.4-0.2,2.2-0.2
				c0.4,0,0.9,0,1.4,0.1c0.5,0.1,1,0.1,1.6,0.3c0.6,0.1,1,0.3,1.4,0.6c0.3,0.3,0.5,0.6,0.5,1c0,0.3-0.1,0.7-0.4,1.1
				c-0.2,0.4-0.6,0.6-1,0.6c-0.2,0-0.6-0.1-1.3-0.4c-0.7-0.3-1.4-0.4-2.3-0.4c-0.9,0-1.6,0.2-2.1,0.5c-0.5,0.3-0.8,0.8-0.8,1.3
				c0,0.5,0.2,0.8,0.6,1.2c0.4,0.3,0.9,0.6,1.5,0.8c0.6,0.2,1.3,0.5,2,0.8c0.7,0.3,1.4,0.7,2,1c0.6,0.4,1.1,0.9,1.5,1.6
				c0.4,0.7,0.6,1.5,0.6,2.5c0,1.6-0.6,2.8-1.7,3.7c-1.1,0.9-2.6,1.3-4.4,1.3c-1.6,0-3-0.3-4.2-0.9
				C247.7,94.9,247.1,94.2,247.1,93.5z"/>
			<path class="st1" d="M263.2,95.3V80c0-0.3,0.1-0.5,0.4-0.7c0.3-0.2,0.6-0.3,1-0.3h9.1c0.3,0,0.6,0.1,0.8,0.4
				c0.2,0.3,0.3,0.6,0.3,0.9c0,0.4-0.1,0.7-0.3,1c-0.2,0.3-0.4,0.4-0.8,0.4h-7.2v4.7h3.9c0.3,0,0.6,0.1,0.8,0.4
				c0.2,0.2,0.3,0.5,0.3,0.9c0,0.3-0.1,0.6-0.3,0.8c-0.2,0.2-0.4,0.4-0.8,0.4h-3.9v4.7h7.2c0.3,0,0.6,0.1,0.8,0.4
				c0.2,0.3,0.3,0.6,0.3,1c0,0.3-0.1,0.6-0.3,0.9c-0.2,0.3-0.4,0.4-0.8,0.4h-9.1c-0.4,0-0.7-0.1-1-0.3
				C263.4,95.8,263.2,95.6,263.2,95.3z"/>
			<path class="st1" d="M294.2,91V80c0-0.3,0.2-0.5,0.5-0.7c0.3-0.2,0.7-0.2,1.2-0.2c0.5,0,0.9,0.1,1.2,0.2c0.3,0.2,0.5,0.4,0.5,0.7
				v11c0,1.8,0.9,2.7,2.8,2.7c1.9,0,2.8-0.9,2.8-2.7V80c0-0.3,0.2-0.5,0.5-0.7c0.3-0.2,0.7-0.2,1.2-0.2s0.9,0.1,1.2,0.2
				c0.3,0.2,0.5,0.4,0.5,0.7v11c0,1.8-0.6,3.2-1.7,4.1c-1.1,0.9-2.6,1.3-4.5,1.3c-1.9,0-3.3-0.4-4.5-1.3
				C294.7,94.2,294.2,92.8,294.2,91z"/>
			<path class="st1" d="M15,80.4"/>
			<path class="st1" d="M12.3,79.4c0,0,0.4-0.5,1-0.3c0,0,1,0.2,1.3,0.7c0,0,0.2,0.4,0,0.8l-1.7,3.5c0,0-0.3,0.4-1,0.4
				c0,0-0.4,0-0.7-0.3c0,0-0.5-0.5-0.3-1L12.3,79.4z"/>
			<path class="st1" d="M287.4,92.5l1,3.1c0.1,0.4,0.6,0.6,1.3,0.6c0.6,0,0.8-0.1,1.3-0.4c0.5-0.3,0.8-0.6,0.8-1c0,0,0-0.1-0.1-0.3
				l-4.9-14.5c-0.1-0.4-0.4-0.6-0.8-0.9c-0.5-0.3-1.3-0.3-1.8-0.3c-0.5,0-1.3,0-1.8,0.3c-0.4,0.2-0.7,0.5-0.8,0.9l-4.9,14.5
				c0,0.1-0.1,0.2-0.1,0.3c0,0.4,0.3,0.7,0.8,1c0.5,0.3,0.8,0.4,1.3,0.4c0.7,0,1.1-0.2,1.3-0.6l1-3.1H287.4z M281.7,90.1l2.5-8.1
				l2.5,8.1H281.7z"/>
		</g>
	</g>
</g>
</svg>
