<?xml version="1.0" encoding="utf-8"?>
<!-- Generator: Adobe Illustrator 23.0.2, SVG Export Plug-In . SVG Version: 6.00 Build 0)  -->
<svg version="1.1" id="Calque_1" xmlns="http://www.w3.org/2000/svg" xmlns:xlink="http://www.w3.org/1999/xlink" x="0px" y="0px"
	 viewBox="0 0 283.5 283.5" style="enable-background:new 0 0 283.5 283.5;" xml:space="preserve">
<style type="text/css">
	.st0{fill:#24273C;}
	.st1{fill:#FFFFFF;}
</style>
<g>
	<g>
		<g>
			<circle class="st0" cx="55.1" cy="125.3" r="53.8"/>
		</g>
		<path class="st1" d="M72.6,108.9c-7.7-0.1-14.5,4.4-17.7,10.8c-3.2-6.3-9.6-10.7-17.1-10.8c-10.7-0.2-19.5,8.4-19.7,19.2
			c-0.2,10.6,8.4,19.5,19.1,19.6c7.7,0.1,14.5-4.4,17.7-10.8c3.2,6.3,9.6,10.7,17.1,10.8c10.7,0.2,19.5-8.4,19.7-19.2
			C91.9,117.8,83.3,109,72.6,108.9z M37.4,135.9c-4.2-0.1-7.5-3.5-7.5-7.7s3.5-7.5,7.7-7.5c4.2,0.1,7.5,3.5,7.5,7.7
			C45.1,132.6,41.6,136,37.4,135.9z M72.2,135.9c-4.2-0.1-7.5-3.5-7.5-7.7c0.1-4.2,3.5-7.5,7.7-7.5s7.5,3.5,7.5,7.7
			C79.9,132.6,76.4,135.9,72.2,135.9z"/>
		<g>
			<circle class="st1" cx="84.7" cy="96" r="8.4"/>
		</g>
	</g>
	<g>
		<path class="st0" d="M145.2,101.4c15.5,0,19.9,11.5,19.9,28c0,16.5-5,28-19.9,28c-14.8,0-19.8-11.5-19.8-28
			C125.4,112.9,129.7,101.4,145.2,101.4z M145.2,149.5c7.8,0,9.2-6.5,9.2-20.1c0-11.8-1.4-20.1-9.2-20.1c-7.7,0-9.1,8.3-9.1,20.1
			C136,143,137.4,149.5,145.2,149.5z"/>
		<path class="st0" d="M173.3,102.8h10.1v6.5h0.2c2.2-4.8,6.1-7.9,12-7.9c12.2,0,17.1,10.4,17.1,28.7c0,22.4-9.1,27.3-16.4,27.3
			c-5.7,0-10.1-2.9-12.1-7.6H184v23.7h-10.7V102.8z M192.5,148.9c6.1,0,8.9-4.6,8.9-19.3c0-12.1-1.6-19.7-9-19.7
			c-7.3,0-9,7.5-9,18.9C183.4,141.6,184.9,148.9,192.5,148.9z"/>
		<path class="st0" d="M221.4,85.3h10.7V156h-10.7V85.3z"/>
		<path class="st0" d="M277.8,144.9c0,2,1.2,3.8,2.8,3.8c0.7,0,1.4-0.1,1.8-0.3v6.9c-1.3,0.6-3.2,1.3-5.2,1.3c-4.8,0-8.7-1.9-9-7
			h-0.2c-2.9,5.2-7,7.8-13.3,7.8c-8.5,0-13.9-4.8-13.9-14.9c0-11.9,5.1-14.4,12.4-16.7l8.3-2.3c3.9-1.1,6.2-2.2,6.2-6.8
			c0-4.9-1.7-7.9-7.3-7.9c-7.1,0-8.1,5-8.1,10.2h-10.1c0-11.3,4.7-17.5,18.7-17.5c9.4,0,16.9,3.7,16.9,13.1V144.9z M267.7,127.9
			c-2.8,2.2-8.7,3.5-11.9,5c-3.1,1.5-4.4,4.7-4.4,8.6c0,4.5,2.2,8,6.6,8c6.4,0,9.6-4.9,9.6-12.7V127.9z"/>
	</g>
</g>
<path class="st0" d="M20.3,201.5l4.1,7.1l4.2-7.1h1.9l-5.2,8.6v5h-1.7v-5l-5.2-8.6H20.3z M34.7,215.3c-0.8,0-1.4-0.1-2.1-0.4
	c-0.6-0.3-1.2-0.7-1.6-1.1c-0.4-0.5-0.8-1-1-1.6c-0.2-0.6-0.4-1.3-0.4-2c0-0.7,0.1-1.4,0.4-2c0.2-0.6,0.6-1.2,1-1.6
	c0.4-0.5,1-0.9,1.6-1.1c0.6-0.3,1.3-0.4,2-0.4c0.7,0,1.4,0.1,2.1,0.4c0.6,0.3,1.2,0.7,1.6,1.1c0.4,0.5,0.8,1,1,1.6
	c0.2,0.6,0.4,1.3,0.4,2c0,0.7-0.1,1.4-0.4,2c-0.2,0.6-0.6,1.2-1,1.6c-0.4,0.5-1,0.8-1.6,1.1C36.1,215.2,35.4,215.3,34.7,215.3z
	 M31.4,210.2c0,0.5,0.1,1,0.3,1.5c0.2,0.4,0.4,0.8,0.7,1.2c0.3,0.3,0.7,0.6,1.1,0.8c0.4,0.2,0.8,0.3,1.3,0.3c0.5,0,0.9-0.1,1.3-0.3
	c0.4-0.2,0.8-0.5,1.1-0.8c0.3-0.3,0.5-0.7,0.7-1.2c0.2-0.5,0.3-0.9,0.3-1.5c0-0.5-0.1-1-0.3-1.4c-0.2-0.5-0.4-0.9-0.7-1.2
	c-0.3-0.3-0.7-0.6-1.1-0.8c-0.4-0.2-0.8-0.3-1.3-0.3c-0.5,0-0.9,0.1-1.3,0.3c-0.4,0.2-0.8,0.5-1.1,0.8c-0.3,0.3-0.5,0.7-0.7,1.2
	C31.5,209.1,31.4,209.6,31.4,210.2z M44.9,215.3c-1,0-1.8-0.3-2.4-1.1c-0.5-0.7-0.8-1.7-0.8-3.1v-6h1.7v5.7c0,2,0.7,3.1,2.1,3.1
	c0.7,0,1.3-0.2,1.9-0.7c0.6-0.4,1.1-1,1.4-1.8v-6.3h1.7v7.9c0,0.4,0.2,0.6,0.5,0.6v1.5c-0.2,0-0.3,0-0.5,0c-0.1,0-0.2,0-0.3,0
	c-0.3,0-0.6-0.1-0.8-0.3c-0.2-0.2-0.3-0.4-0.4-0.7l0-1.2c-0.4,0.8-1,1.3-1.8,1.7C46.6,215.1,45.8,215.3,44.9,215.3z M58.6,206.6
	c-0.8,0-1.6,0.2-2.2,0.7c-0.6,0.4-1.1,1-1.4,1.7v6.2h-1.7v-10h1.6v2.3c0.3-0.7,0.8-1.2,1.4-1.7c0.6-0.4,1.2-0.7,1.8-0.7
	c0.1,0,0.2,0,0.3,0c0.1,0,0.2,0,0.2,0V206.6z M70.5,215.2c-1,0-1.8-0.2-2.6-0.6c-0.8-0.4-1.5-0.9-2-1.6c-0.6-0.6-1-1.4-1.3-2.2
	c-0.3-0.8-0.5-1.7-0.5-2.5c0-0.9,0.2-1.8,0.5-2.6c0.3-0.8,0.8-1.6,1.4-2.2c0.6-0.6,1.3-1.1,2-1.5s1.6-0.6,2.6-0.6
	c1,0,1.8,0.2,2.6,0.6c0.8,0.4,1.5,0.9,2,1.6c0.6,0.7,1,1.4,1.3,2.2c0.3,0.8,0.5,1.7,0.5,2.5c0,0.9-0.2,1.8-0.5,2.6
	c-0.3,0.8-0.8,1.6-1.3,2.2c-0.6,0.6-1.2,1.1-2,1.5S71.4,215.2,70.5,215.2z M65.8,208.3c0,0.7,0.1,1.4,0.3,2c0.2,0.6,0.5,1.2,0.9,1.7
	c0.4,0.5,0.9,0.9,1.5,1.2c0.6,0.3,1.2,0.4,1.9,0.4c0.7,0,1.4-0.2,2-0.5c0.6-0.3,1.1-0.7,1.5-1.2c0.4-0.5,0.7-1.1,0.9-1.7
	c0.2-0.6,0.3-1.3,0.3-1.9c0-0.7-0.1-1.4-0.3-2c-0.2-0.6-0.5-1.2-1-1.7s-0.9-0.9-1.5-1.2c-0.6-0.3-1.2-0.4-1.9-0.4
	c-0.7,0-1.4,0.2-2,0.5s-1.1,0.7-1.5,1.2c-0.4,0.5-0.7,1.1-0.9,1.7C65.9,207,65.8,207.7,65.8,208.3z M79.3,215.1v-13.6H85
	c0.6,0,1.2,0.1,1.7,0.4c0.5,0.3,0.9,0.6,1.3,1c0.4,0.4,0.6,0.9,0.9,1.4c0.2,0.5,0.3,1,0.3,1.6c0,0.6-0.1,1.1-0.3,1.6
	c-0.2,0.5-0.5,1-0.8,1.4c-0.4,0.4-0.8,0.7-1.3,1c-0.5,0.2-1,0.4-1.6,0.4H81v4.9H79.3z M81,208.7h4c0.4,0,0.7-0.1,1-0.2
	c0.3-0.1,0.5-0.4,0.7-0.6c0.2-0.3,0.4-0.6,0.5-0.9c0.1-0.3,0.2-0.7,0.2-1.1c0-0.4-0.1-0.8-0.2-1.1c-0.1-0.3-0.3-0.6-0.5-0.9
	c-0.2-0.3-0.5-0.5-0.8-0.6c-0.3-0.1-0.6-0.2-0.9-0.2H81V208.7z M100.5,213.6v1.5h-9.2v-13.6h9.1v1.5H93v4.4h6.4v1.4H93v4.7H100.5z
	 M104.6,204.7v10.4h-1.7v-13.6h1.3l8.4,10.6v-10.6h1.7v13.6h-1.5L104.6,204.7z M121.6,208.2c0-0.8,0.1-1.6,0.4-2.4
	c0.3-0.8,0.7-1.5,1.3-2.2c0.6-0.6,1.2-1.2,2-1.6c0.8-0.4,1.7-0.6,2.7-0.6c1.2,0,2.3,0.3,3.1,0.8c0.9,0.5,1.5,1.3,1.9,2.1l-1.4,0.9
	c-0.2-0.4-0.5-0.8-0.7-1.1c-0.3-0.3-0.6-0.5-0.9-0.7c-0.3-0.2-0.7-0.3-1-0.4c-0.4-0.1-0.7-0.1-1.1-0.1c-0.8,0-1.4,0.2-2,0.5
	c-0.6,0.3-1.1,0.7-1.5,1.2c-0.4,0.5-0.7,1.1-0.9,1.7c-0.2,0.6-0.3,1.3-0.3,1.9c0,0.7,0.1,1.4,0.4,2c0.2,0.6,0.6,1.2,1,1.7
	c0.4,0.5,0.9,0.9,1.5,1.2c0.6,0.3,1.2,0.4,1.9,0.4c0.4,0,0.7,0,1.1-0.1c0.4-0.1,0.7-0.2,1.1-0.4c0.3-0.2,0.7-0.4,1-0.7
	c0.3-0.3,0.5-0.7,0.7-1.1l1.4,0.8c-0.2,0.5-0.5,1-0.9,1.4c-0.4,0.4-0.8,0.7-1.3,1c-0.5,0.3-1,0.5-1.6,0.6c-0.5,0.1-1.1,0.2-1.6,0.2
	c-0.9,0-1.8-0.2-2.6-0.6s-1.5-0.9-2-1.6c-0.6-0.7-1-1.4-1.3-2.2C121.7,209.9,121.6,209.1,121.6,208.2z M143.9,215.1h-1.7v-5.6
	c0-1-0.2-1.8-0.5-2.3c-0.4-0.5-0.9-0.8-1.6-0.8c-0.3,0-0.7,0.1-1,0.2c-0.3,0.1-0.6,0.3-0.9,0.5c-0.3,0.2-0.5,0.5-0.8,0.8
	c-0.2,0.3-0.4,0.7-0.5,1.1v6h-1.7v-14h1.7v6.1c0.4-0.7,0.9-1.3,1.6-1.7c0.7-0.4,1.4-0.6,2.2-0.6c0.6,0,1.1,0.1,1.5,0.3
	c0.4,0.2,0.7,0.5,1,0.9c0.2,0.4,0.4,0.8,0.5,1.3c0.1,0.5,0.2,1.1,0.2,1.7V215.1z M149.1,215.3c-0.5,0-0.9-0.1-1.3-0.2
	c-0.4-0.2-0.8-0.4-1.1-0.7c-0.3-0.3-0.5-0.6-0.7-1c-0.2-0.4-0.3-0.8-0.3-1.2c0-0.5,0.1-0.9,0.3-1.3c0.2-0.4,0.5-0.7,0.9-1
	c0.4-0.3,0.8-0.5,1.3-0.6c0.5-0.2,1.1-0.2,1.7-0.2c0.5,0,1,0,1.5,0.1c0.5,0.1,0.9,0.2,1.3,0.4v-0.8c0-0.8-0.2-1.5-0.7-1.9
	c-0.5-0.5-1.1-0.7-2-0.7c-1,0-2.1,0.4-3.2,1.2l-0.6-1.1c1.3-0.9,2.6-1.3,3.9-1.3c1.3,0,2.3,0.4,3.1,1.1c0.7,0.7,1.1,1.7,1.1,3v4.1
	c0,0.4,0.2,0.6,0.5,0.6v1.5c-0.2,0-0.3,0-0.4,0.1c-0.1,0-0.2,0-0.4,0c-0.3,0-0.6-0.1-0.8-0.3c-0.2-0.2-0.3-0.4-0.4-0.7l0-0.7
	c-0.4,0.6-1,1.1-1.7,1.4C150.6,215.2,149.9,215.3,149.1,215.3z M149.6,214.1c0.6,0,1.2-0.1,1.7-0.3c0.5-0.2,0.9-0.5,1.2-0.9
	c0.2-0.2,0.4-0.5,0.4-0.7v-1.5c-0.8-0.3-1.7-0.5-2.5-0.5c-0.8,0-1.5,0.2-2.1,0.5c-0.5,0.4-0.8,0.8-0.8,1.4c0,0.3,0.1,0.5,0.2,0.8
	c0.1,0.2,0.3,0.5,0.5,0.6c0.2,0.2,0.4,0.3,0.7,0.4C149,214,149.3,214.1,149.6,214.1z M162.3,214.6c-0.1,0.1-0.2,0.1-0.4,0.2
	c-0.2,0.1-0.4,0.1-0.6,0.2c-0.2,0.1-0.4,0.1-0.7,0.2c-0.2,0-0.5,0.1-0.8,0.1c-0.6,0-1.1-0.2-1.6-0.5c-0.4-0.3-0.7-0.9-0.7-1.6v-6.7
	h-1.4v-1.3h1.4v-3.3h1.7v3.3h2.2v1.3h-2.2v6.2c0,0.4,0.1,0.6,0.4,0.8c0.2,0.2,0.5,0.2,0.8,0.2c0.3,0,0.6-0.1,0.9-0.2
	c0.3-0.1,0.5-0.2,0.6-0.3L162.3,214.6z M169,215.3c-0.8,0-1.5-0.2-2.1-0.6c-0.6-0.4-1.1-0.9-1.5-1.5v1.9h-1.5v-14h1.7v6
	c0.4-0.7,0.9-1.2,1.6-1.6c0.6-0.4,1.3-0.6,2.1-0.6c0.7,0,1.3,0.1,1.9,0.4c0.5,0.3,1,0.7,1.4,1.2c0.4,0.5,0.7,1,0.9,1.7
	c0.2,0.6,0.3,1.3,0.3,1.9c0,0.7-0.1,1.4-0.4,2c-0.2,0.6-0.6,1.2-1,1.6c-0.4,0.5-0.9,0.8-1.5,1.1C170.3,215.2,169.6,215.3,169,215.3z
	 M168.6,213.9c0.5,0,1-0.1,1.4-0.3c0.4-0.2,0.8-0.5,1.1-0.8c0.3-0.3,0.5-0.7,0.7-1.2c0.2-0.4,0.2-0.9,0.2-1.4c0-0.5-0.1-1-0.2-1.4
	c-0.2-0.5-0.4-0.9-0.7-1.2c-0.3-0.3-0.6-0.6-1-0.8c-0.4-0.2-0.8-0.3-1.3-0.3c-0.4,0-0.7,0.1-1,0.2c-0.3,0.1-0.6,0.3-0.9,0.5
	c-0.3,0.2-0.5,0.5-0.7,0.7c-0.2,0.3-0.4,0.6-0.5,0.9v2.9c0.1,0.3,0.2,0.6,0.4,0.9c0.2,0.3,0.5,0.5,0.7,0.7c0.3,0.2,0.6,0.4,0.9,0.5
	C167.9,213.8,168.3,213.9,168.6,213.9z M180.2,215.3c-0.8,0-1.4-0.1-2.1-0.4c-0.6-0.3-1.2-0.7-1.6-1.1c-0.4-0.5-0.8-1-1-1.6
	c-0.2-0.6-0.4-1.3-0.4-2c0-0.7,0.1-1.4,0.4-2c0.2-0.6,0.6-1.2,1-1.6c0.4-0.5,1-0.9,1.6-1.1c0.6-0.3,1.3-0.4,2-0.4
	c0.7,0,1.4,0.1,2.1,0.4c0.6,0.3,1.2,0.7,1.6,1.1c0.4,0.5,0.8,1,1,1.6c0.2,0.6,0.4,1.3,0.4,2c0,0.7-0.1,1.4-0.4,2
	c-0.2,0.6-0.6,1.2-1,1.6c-0.4,0.5-1,0.8-1.6,1.1C181.6,215.2,180.9,215.3,180.2,215.3z M176.8,210.2c0,0.5,0.1,1,0.3,1.5
	c0.2,0.4,0.4,0.8,0.7,1.2c0.3,0.3,0.7,0.6,1.1,0.8c0.4,0.2,0.8,0.3,1.3,0.3c0.5,0,0.9-0.1,1.3-0.3c0.4-0.2,0.8-0.5,1.1-0.8
	c0.3-0.3,0.5-0.7,0.7-1.2c0.2-0.5,0.3-0.9,0.3-1.5c0-0.5-0.1-1-0.3-1.4c-0.2-0.5-0.4-0.9-0.7-1.2c-0.3-0.3-0.7-0.6-1.1-0.8
	c-0.4-0.2-0.8-0.3-1.3-0.3c-0.5,0-0.9,0.1-1.3,0.3c-0.4,0.2-0.8,0.5-1.1,0.8c-0.3,0.3-0.5,0.7-0.7,1.2
	C176.9,209.1,176.8,209.6,176.8,210.2z M192.3,214.6c-0.1,0.1-0.2,0.1-0.4,0.2c-0.2,0.1-0.4,0.1-0.6,0.2c-0.2,0.1-0.4,0.1-0.7,0.2
	c-0.2,0-0.5,0.1-0.8,0.1c-0.6,0-1.1-0.2-1.6-0.5c-0.4-0.3-0.7-0.9-0.7-1.6v-6.7h-1.4v-1.3h1.4v-3.3h1.7v3.3h2.2v1.3h-2.2v6.2
	c0,0.4,0.1,0.6,0.4,0.8c0.2,0.2,0.5,0.2,0.8,0.2c0.3,0,0.6-0.1,0.9-0.2c0.3-0.1,0.5-0.2,0.6-0.3L192.3,214.6z M209.4,211.6
	c0,0.5-0.1,1-0.3,1.4c-0.2,0.4-0.5,0.8-0.9,1.1c-0.4,0.3-0.8,0.5-1.3,0.7c-0.5,0.2-1,0.2-1.5,0.2H199v-13.6h6.8
	c0.5,0,0.9,0.1,1.3,0.3c0.4,0.2,0.7,0.5,1,0.8c0.3,0.3,0.5,0.7,0.6,1.1s0.2,0.8,0.2,1.3c0,0.7-0.2,1.3-0.5,1.9
	c-0.3,0.6-0.8,1-1.4,1.3c0.8,0.2,1.4,0.7,1.8,1.3C209.2,210,209.4,210.8,209.4,211.6z M200.7,203v4.5h4.3c0.3,0,0.6-0.1,0.8-0.2
	c0.3-0.1,0.5-0.3,0.7-0.5s0.3-0.4,0.4-0.7c0.1-0.3,0.2-0.6,0.2-0.9c0-0.3-0.1-0.6-0.2-0.9c-0.1-0.3-0.2-0.5-0.4-0.7
	c-0.2-0.2-0.4-0.4-0.6-0.5c-0.2-0.1-0.5-0.2-0.8-0.2H200.7z M207.7,211.3c0-0.3-0.1-0.6-0.2-0.9c-0.1-0.3-0.3-0.5-0.4-0.8
	c-0.2-0.2-0.4-0.4-0.7-0.5c-0.3-0.1-0.5-0.2-0.8-0.2h-4.9v4.7h4.7c0.3,0,0.6-0.1,0.9-0.2c0.3-0.1,0.5-0.3,0.7-0.5
	c0.2-0.2,0.4-0.5,0.5-0.7C207.6,211.9,207.7,211.6,207.7,211.3z M214.7,215.3c-1,0-1.8-0.3-2.4-1.1c-0.5-0.7-0.8-1.7-0.8-3.1v-6h1.7
	v5.7c0,2,0.7,3.1,2.1,3.1c0.7,0,1.3-0.2,1.9-0.7c0.6-0.4,1.1-1,1.4-1.8v-6.3h1.7v7.9c0,0.4,0.2,0.6,0.5,0.6v1.5c-0.2,0-0.3,0-0.5,0
	c-0.1,0-0.2,0-0.3,0c-0.3,0-0.6-0.1-0.8-0.3c-0.2-0.2-0.3-0.4-0.4-0.7l0-1.2c-0.4,0.8-1,1.3-1.8,1.7
	C216.3,215.1,215.5,215.3,214.7,215.3z M223.1,203.2v-2.1h1.7v2.1H223.1z M223.1,215.1v-10h1.7v10H223.1z M227.5,201.1h1.7v11.4
	c0,0.4,0.1,0.7,0.3,0.9c0.2,0.2,0.5,0.3,0.8,0.3c0.1,0,0.3,0,0.5-0.1c0.2,0,0.4-0.1,0.5-0.2l0.3,1.4c-0.3,0.1-0.6,0.2-1,0.3
	c-0.4,0.1-0.7,0.1-1,0.1c-0.7,0-1.2-0.2-1.5-0.6c-0.4-0.4-0.6-0.9-0.6-1.6V201.1z M237.1,215.3c-0.7,0-1.3-0.1-1.9-0.4
	c-0.6-0.3-1.1-0.7-1.5-1.1c-0.4-0.5-0.8-1-1-1.6c-0.2-0.6-0.4-1.3-0.4-2c0-0.7,0.1-1.4,0.3-2s0.5-1.2,0.9-1.7
	c0.4-0.5,0.9-0.8,1.4-1.1c0.6-0.3,1.2-0.4,1.8-0.4c0.8,0,1.5,0.2,2.2,0.6s1.1,0.9,1.5,1.5v-6h1.7v11.9c0,0.4,0.2,0.6,0.5,0.6v1.5
	c-0.2,0-0.3,0-0.4,0.1c-0.1,0-0.2,0-0.3,0c-0.3,0-0.6-0.1-0.9-0.3c-0.2-0.2-0.4-0.5-0.4-0.8v-0.8c-0.4,0.7-0.9,1.2-1.6,1.5
	C238.5,215.1,237.8,215.3,237.1,215.3z M237.5,213.9c0.3,0,0.6-0.1,0.9-0.2c0.3-0.1,0.6-0.3,0.9-0.5c0.3-0.2,0.5-0.4,0.7-0.7
	c0.2-0.3,0.3-0.6,0.4-0.9v-2.9c-0.1-0.3-0.3-0.6-0.5-0.9c-0.2-0.3-0.5-0.5-0.8-0.7c-0.3-0.2-0.6-0.4-0.9-0.5c-0.3-0.1-0.6-0.2-1-0.2
	c-0.5,0-0.9,0.1-1.4,0.3c-0.4,0.2-0.7,0.5-1,0.8c-0.3,0.3-0.5,0.8-0.7,1.2s-0.2,0.9-0.2,1.4c0,0.5,0.1,1,0.3,1.4
	c0.2,0.5,0.4,0.8,0.7,1.2c0.3,0.3,0.7,0.6,1.1,0.8C236.6,213.8,237,213.9,237.5,213.9z M249.5,215.3c-0.8,0-1.4-0.1-2.1-0.4
	c-0.6-0.3-1.2-0.6-1.6-1.1c-0.4-0.5-0.8-1-1-1.7c-0.2-0.6-0.4-1.3-0.4-2s0.1-1.4,0.4-2c0.2-0.6,0.6-1.2,1.1-1.6
	c0.5-0.5,1-0.8,1.6-1.1c0.6-0.3,1.3-0.4,2.1-0.4c0.8,0,1.4,0.1,2.1,0.4c0.6,0.3,1.1,0.7,1.6,1.1c0.4,0.5,0.8,1,1,1.6
	c0.2,0.6,0.4,1.3,0.4,1.9c0,0.1,0,0.3,0,0.4c0,0.1,0,0.2,0,0.3h-8.3c0,0.5,0.2,1,0.3,1.4c0.2,0.4,0.4,0.8,0.7,1.1
	c0.3,0.3,0.7,0.5,1,0.7c0.4,0.2,0.8,0.3,1.2,0.3c0.3,0,0.6,0,0.9-0.1c0.3-0.1,0.6-0.2,0.8-0.3c0.3-0.1,0.5-0.3,0.7-0.5
	c0.2-0.2,0.3-0.4,0.5-0.7l1.5,0.4c-0.2,0.4-0.4,0.7-0.7,1c-0.3,0.3-0.6,0.6-1,0.8c-0.4,0.2-0.8,0.4-1.3,0.5
	C250.4,215.3,250,215.3,249.5,215.3z M252.9,209.4c0-0.5-0.2-0.9-0.4-1.3c-0.2-0.4-0.4-0.7-0.7-1c-0.3-0.3-0.7-0.5-1-0.7
	c-0.4-0.2-0.8-0.2-1.3-0.2c-0.4,0-0.9,0.1-1.3,0.2c-0.4,0.2-0.7,0.4-1,0.7c-0.3,0.3-0.5,0.6-0.7,1c-0.2,0.4-0.3,0.8-0.3,1.3H252.9z
	 M261.7,206.6c-0.8,0-1.6,0.2-2.2,0.7c-0.6,0.4-1.1,1-1.4,1.7v6.2h-1.7v-10h1.6v2.3c0.3-0.7,0.8-1.2,1.4-1.7
	c0.6-0.4,1.2-0.7,1.8-0.7c0.1,0,0.2,0,0.3,0s0.2,0,0.2,0V206.6z"/>
</svg>
